<?xml version="1.0" encoding="utf-8"?>
<!-- Generator: Adobe Illustrator 21.0.0, SVG Export Plug-In . SVG Version: 6.00 Build 0)  -->
<svg version="1.1" id="Camada_1" xmlns="http://www.w3.org/2000/svg" xmlns:xlink="http://www.w3.org/1999/xlink" x="0px" y="0px"
	 viewBox="0 0 261.8 261.8" style="enable-background:new 0 0 261.8 261.8;" xml:space="preserve">
<style type="text/css">
	.st0{clip-path:url(#SVGID_2_);}
	.st1{fill:#1D1D1B26;}
</style>
<g>
	<defs>
		<rect id="SVGID_1_" x="0" y="0" width="261.8" height="261.8"/>
	</defs>
	<clipPath id="SVGID_2_">
		<use xlink:href="#SVGID_1_"  style="overflow:visible;"/>
	</clipPath>
	<g class="st0">
		<g>
			<path class="st1" d="M177.9,190.2l-14.6,12.6c-2,1.7-4.9,1.5-6.6-0.5v0c-1.7-2-1.5-4.9,0.5-6.6l14.6-12.6c2-1.7,4.9-1.5,6.6,0.5
				v0C180,185.6,179.8,188.6,177.9,190.2z"/>
			<path class="st1" d="M217.3,190.2l-14.6,12.6c-2,1.7-4.9,1.5-6.6-0.5l0,0c-1.7-2-1.5-4.9,0.5-6.6l14.6-12.6
				c2-1.7,4.9-1.5,6.6,0.5v0C219.4,185.6,219.2,188.6,217.3,190.2z"/>
		</g>
		<path class="st1" d="M169.6,57.1v30.1c0,0.4,0.3,0.8,0.8,0.8h30.1c0.4,0,0.8-0.3,0.8-0.8V57.1c0-0.4-0.3-0.8-0.8-0.8h-30.1
			C170,56.3,169.6,56.7,169.6,57.1z M194.9,82.2H176c-0.3,0-0.6-0.3-0.6-0.6V62.7c0-0.3,0.3-0.6,0.6-0.6h18.9c0.3,0,0.6,0.3,0.6,0.6
			v18.9C195.5,81.9,195.2,82.2,194.9,82.2z"/>
		<path class="st1" d="M55.6,55.5L37.3,86.2c-0.2,0.3,0,0.6,0.3,0.6h36.2c0.3,0,0.5-0.3,0.3-0.6L56.2,55.5
			C56.1,55.3,55.7,55.3,55.6,55.5z M56,65.5l8.8,15.1c0.1,0.2,0,0.4-0.2,0.4H46.8c-0.2,0-0.3-0.2-0.2-0.4l9-15.1
			C55.7,65.4,55.9,65.4,56,65.5z"/>
		<path class="st1" d="M261.8,106.2c-10.8,0-19.5,8.7-19.5,19.5s8.7,19.5,19.5,19.5s19.5-8.7,19.5-19.5S272.6,106.2,261.8,106.2z
			 M261.8,139.5c-7.6,0-13.8-6.2-13.8-13.8c0-7.6,6.2-13.8,13.8-13.8c7.6,0,13.8,6.2,13.8,13.8C275.6,133.3,269.5,139.5,261.8,139.5
			z"/>
		<path class="st1" d="M0,106.2c-10.8,0-19.5,8.7-19.5,19.5s8.7,19.5,19.5,19.5s19.5-8.7,19.5-19.5S10.8,106.2,0,106.2z M0,139.5
			c-7.6,0-13.8-6.2-13.8-13.8c0-7.6,6.2-13.8,13.8-13.8s13.8,6.2,13.8,13.8C13.8,133.3,7.6,139.5,0,139.5z"/>
		<path class="st1" d="M68.1,164c-0.9,0-1.7-0.3-2.3-1l-10.1-10.1L45.6,163c-0.6,0.6-1.5,1-2.3,1c-0.9,0-1.7-0.3-2.3-1
			c-0.6-0.6-1-1.5-1-2.3c0-0.9,0.3-1.7,1-2.3L51,148.2l-10.1-10.1c-1.3-1.3-1.3-3.4,0-4.7c0.6-0.6,1.5-1,2.3-1c0.9,0,1.7,0.3,2.3,1
			l10.1,10.1l10.1-10.1c0.6-0.6,1.5-1,2.3-1c0.9,0,1.7,0.3,2.3,1c0.6,0.6,1,1.5,1,2.3s-0.3,1.7-1,2.3l-10.1,10.1l10.1,10.1
			c0.6,0.6,1,1.5,1,2.3c0,0.9-0.3,1.7-1,2.3C69.9,163.7,69,164,68.1,164z"/>
		<g>
			<path class="st1" d="M178.4,121.7h11.7c2.3,0,4.1,0.1,5.2,0.3c1.1,0.2,2.2,0.7,3.1,1.4c0.9,0.7,1.7,1.7,2.3,2.9
				c0.6,1.2,0.9,2.6,0.9,4.1c0,1.6-0.4,3.1-1.1,4.5c-0.7,1.4-1.7,2.4-3,3.1c1.8,0.6,3.2,1.7,4.1,3.2c1,1.5,1.4,3.2,1.4,5.3
				c0,1.6-0.3,3.1-0.9,4.6c-0.6,1.5-1.5,2.7-2.5,3.6c-1.1,0.9-2.4,1.4-4,1.7c-1,0.1-3.4,0.2-7.1,0.2h-10V121.7z M184.4,127.5v8.1
				h3.9c2.3,0,3.7,0,4.3-0.1c1-0.1,1.8-0.6,2.4-1.2c0.6-0.7,0.9-1.6,0.9-2.7c0-1.1-0.3-2-0.8-2.6c-0.5-0.7-1.2-1.1-2.2-1.2
				c-0.6-0.1-2.3-0.1-5.1-0.1H184.4z M184.4,141.3v9.3h5.5c2.1,0,3.5-0.1,4.1-0.2c0.9-0.2,1.6-0.7,2.2-1.4s0.8-1.7,0.8-3
				c0-1-0.2-1.9-0.6-2.7c-0.4-0.7-1-1.3-1.9-1.6c-0.8-0.3-2.6-0.5-5.3-0.5H184.4z"/>
		</g>
		<g>
			<path class="st1" d="M102.8,64.6l11.9-18.2l-10.8-16.7h8.2l7,11.2l6.9-11.2h8.2l-10.8,16.9l11.9,17.9h-8.5L119,52.5l-7.8,12.1
				H102.8z"/>
		</g>
		<g>
			<path class="st1" d="M55.2,279.3v-14.7l-12.8-20.2h8.3l8.2,13.8l8-13.8h8.1l-12.8,20.2v14.6H55.2z"/>
		</g>
		<g>
			<path class="st1" d="M55.2,17.4V2.8L42.5-17.4h8.3l8.2,13.8l8-13.8h8.1L62.3,2.8v14.6H55.2z"/>
		</g>
		<g>
			<path class="st1" d="M26.1,229.5h-7.7l-3-7.9H1.4l-2.9,7.9h-7.5l13.6-34.9h7.4L26.1,229.5z M13.1,215.7l-4.8-12.9l-4.7,12.9H13.1
				z"/>
		</g>
		<g>
			<path class="st1" d="M287.9,229.5h-7.7l-3-7.9h-13.9l-2.9,7.9h-7.5l13.6-34.9h7.4L287.9,229.5z M275,215.7l-4.8-12.9l-4.7,12.9
				H275z"/>
		</g>
		<g>
			<path class="st1" d="M136.7,258.6v-9.5h-9.6v-6.6h9.6V233h6.4v9.5h9.6v6.6h-9.6v9.5H136.7z"/>
		</g>
		<path class="st1" d="M100,227.6h-2.4c-3.6,0-6.7-2.4-7.7-5.8l-10.3-33l0-0.1c-0.5-2.4,0.1-4.8,1.6-6.7s3.8-3,6.2-3h23
			c2.4,0,4.7,1.1,6.2,3s2.1,4.3,1.6,6.7l-0.1,0.2l-10.3,32.9C106.7,225.3,103.6,227.6,100,227.6z M84.7,187.5l10.3,32.9
			c0.3,1.2,1.4,2,2.6,2h2.4c1.2,0,2.3-0.8,2.6-2l0-0.1l10.2-32.8c0.1-0.8-0.1-1.5-0.5-2.1c-0.5-0.6-1.3-1-2.1-1h-23
			c-0.8,0-1.6,0.4-2.1,1C84.7,185.9,84.5,186.7,84.7,187.5z"/>
		<path class="st1" d="M94.7,125.6v-2.4c0-3.6,2.4-6.7,5.8-7.7l33-10.3l0.1,0c2.4-0.5,4.8,0.1,6.7,1.6c1.9,1.5,3,3.8,3,6.2v23
			c0,2.4-1.1,4.7-3,6.2c-1.9,1.5-4.3,2.1-6.7,1.6l-0.2-0.1l-32.9-10.3C97.1,132.3,94.7,129.1,94.7,125.6z M134.9,110.2L102,120.5
			c-1.2,0.3-2,1.4-2,2.6v2.4c0,1.2,0.8,2.3,2,2.6l0.1,0l32.8,10.2c0.8,0.1,1.5-0.1,2.1-0.5c0.6-0.5,1-1.3,1-2.1v-23
			c0-0.8-0.4-1.6-1-2.1C136.4,110.3,135.6,110.1,134.9,110.2z"/>
		<path class="st1" d="M198.3,227.3h2.4c3.6,0,6.7,2.4,7.7,5.8l10.3,33l0,0.1c0.5,2.4-0.1,4.8-1.6,6.7s-3.8,3-6.2,3h-23
			c-2.4,0-4.7-1.1-6.2-3c-1.5-1.9-2.1-4.3-1.6-6.7l0.1-0.2l10.3-32.9C191.6,229.7,194.7,227.3,198.3,227.3z M213.6,267.5l-10.3-32.9
			c-0.3-1.2-1.4-2-2.6-2h-2.4c-1.2,0-2.3,0.8-2.6,2l0,0.1l-10.2,32.8c-0.1,0.8,0.1,1.5,0.5,2.1c0.5,0.6,1.3,1,2.1,1h23
			c0.8,0,1.6-0.4,2.1-1C213.6,269,213.8,268.3,213.6,267.5z"/>
		<path class="st1" d="M198.3-34.5h2.4c3.6,0,6.7,2.4,7.7,5.8l10.3,33l0,0.1c0.5,2.4-0.1,4.8-1.6,6.7s-3.8,3-6.2,3h-23
			c-2.4,0-4.7-1.1-6.2-3c-1.5-1.9-2.1-4.3-1.6-6.7l0.1-0.2l10.3-32.9C191.6-32.1,194.7-34.5,198.3-34.5z M213.6,5.7l-10.3-32.9
			c-0.3-1.2-1.4-2-2.6-2h-2.4c-1.2,0-2.3,0.8-2.6,2l0,0.1L185.4,5.7c-0.1,0.8,0.1,1.5,0.5,2.1c0.5,0.6,1.3,1,2.1,1h23
			c0.8,0,1.6-0.4,2.1-1C213.6,7.2,213.8,6.4,213.6,5.7z"/>
		<path class="st1" d="M24.4,42.7v2.4c0,3.6-2.4,6.7-5.8,7.7l-33,10.3l-0.1,0c-2.4,0.5-4.8-0.1-6.7-1.6c-1.9-1.5-3-3.8-3-6.2v-23
			c0-2.4,1.1-4.7,3-6.2c1.9-1.5,4.3-2.1,6.7-1.6l0.2,0.1L18.5,35C22,36,24.4,39.1,24.4,42.7z M-15.8,58l32.9-10.3
			c1.2-0.3,2-1.4,2-2.6v-2.4c0-1.2-0.8-2.3-2-2.6l-0.1,0l-32.8-10.2c-0.8-0.1-1.5,0.1-2.1,0.5c-0.6,0.5-1,1.3-1,2.1v23
			c0,0.8,0.4,1.6,1,2.1C-17.3,58-16.6,58.2-15.8,58z"/>
		<path class="st1" d="M286.1,42.7v2.4c0,3.6-2.4,6.7-5.8,7.7l-33,10.3l-0.1,0c-2.4,0.5-4.8-0.1-6.7-1.6c-1.9-1.5-3-3.8-3-6.2v-23
			c0-2.4,1.1-4.7,3-6.2c1.9-1.5,4.3-2.1,6.7-1.6l0.2,0.1L280.3,35C283.7,36,286.1,39.1,286.1,42.7z M245.9,58l32.9-10.3
			c1.2-0.3,2-1.4,2-2.6v-2.4c0-1.2-0.8-2.3-2-2.6l-0.1,0l-32.8-10.2c-0.8-0.1-1.5,0.1-2.1,0.5c-0.6,0.5-1,1.3-1,2.1v23
			c0,0.8,0.4,1.6,1,2.1C244.4,58,245.2,58.2,245.9,58z"/>
	</g>
</g>
</svg>
